<?xml version="1.0" encoding="UTF-8" standalone="no"?>
<svg
   xmlns:dc="http://purl.org/dc/elements/1.1/"
   xmlns:cc="http://creativecommons.org/ns#"
   xmlns:rdf="http://www.w3.org/1999/02/22-rdf-syntax-ns#"
   xmlns:svg="http://www.w3.org/2000/svg"
   xmlns="http://www.w3.org/2000/svg"
   xmlns:sodipodi="http://sodipodi.sourceforge.net/DTD/sodipodi-0.dtd"
   xmlns:inkscape="http://www.inkscape.org/namespaces/inkscape"
   version="1.1"
   x="0px"
   y="0px"
   viewBox="0 0 90 112.5"
   enable-background="new 0 0 90 90"
   xml:space="preserve"
   id="svg2"
   inkscape:version="0.48.4 r9939"
   width="100%"
   height="100%"
   sodipodi:docname="Pineapple.svg"><metadata
     id="metadata112"><rdf:RDF><cc:Work
         rdf:about=""><dc:format>image/svg+xml</dc:format><dc:type
           rdf:resource="http://purl.org/dc/dcmitype/StillImage" /><dc:title></dc:title></cc:Work></rdf:RDF></metadata><defs
     id="defs110" /><sodipodi:namedview
     pagecolor="#ffffff"
     bordercolor="#666666"
     borderopacity="1"
     objecttolerance="10"
     gridtolerance="10"
     guidetolerance="10"
     inkscape:pageopacity="0"
     inkscape:pageshadow="2"
     inkscape:window-width="1480"
     inkscape:window-height="907"
     id="namedview108"
     showgrid="false"
     inkscape:zoom="1.4833529"
     inkscape:cx="67.30484"
     inkscape:cy="63.130929"
     inkscape:window-x="145"
     inkscape:window-y="81"
     inkscape:window-maximized="0"
     inkscape:current-layer="svg2" /><g
     id="g4127"
     transform="translate(-84.268552,1.6011027)"
     inkscape:export-filename="/home/nwhitehead/projects/pineapple/images/path102.png"
     inkscape:export-xdpi="280.10098"
     inkscape:export-ydpi="280.10098"><path
       id="path16-9"
       d="m 128.375,38.6875 c -0.17911,0.0251 -0.35064,0.08872 -0.53125,0.15625 -8.9e-4,-0.0012 -3.44747,-0.0064 -4.625,2.53125 l -1.1875,-0.78125 c -4.87554,-2.75724 -6.40625,2.625 -6.40625,2.625 l 0.25,0.4375 c -1.1947,-0.02639 -4.67411,0.390693 -3.8125,6.375 -1.70818,1.014153 -1.92771,2.804807 -1.84375,3.96875 -1.77422,2.643003 -0.85014,7.504407 -0.75,8 0.001,0.01878 -0.002,0.04445 0,0.0625 0.002,0.01211 0.0312,0.125 0.0312,0.125 0.004,0.02121 -0.004,0.04263 0,0.0625 l -0.25,-0.1875 0,6.59375 c -0.006,-0.0021 -0.0937,-0.03125 -0.0937,-0.03125 l 2.46875,7.78125 c 0.38124,0.161955 0.73578,0.259171 1.0625,0.3125 0.44102,1.831533 1.60475,2.707318 2.875,3.09375 -0.0649,0.182515 -0.12385,0.364154 -0.1875,0.5625 l 9.34375,3.5 c 0,0 -0.0516,-0.128554 -0.0625,-0.15625 l 6.84375,0 c 0,0 -0.0396,-0.578136 -0.28125,-1.40625 0.0996,0.0476 0.21875,0.125 0.21875,0.125 l 0.5,-0.625 c -0.0985,0.289287 -0.18541,0.550064 -0.28125,0.875 0,0 4.31878,-1.318474 6.1875,-2.5 2.02109,0.24501 3.21875,-1.4375 3.21875,-1.4375 0.6241,-0.952202 0.97826,-1.797632 1.125,-2.53125 0.0947,0.0058 0.1809,-1.28e-4 0.28125,0 l 3.09375,-6.8125 c 0.009,0.0034 0.0225,-0.0034 0.0312,0 l 0.0937,-0.25 c 0,0 -0.0856,0.05798 -0.0937,0.0625 l 0,-7.6875 c 0,0 -0.1697,0.112453 -0.25,0.15625 l 0.0937,-0.15625 c 0,0 -0.0444,-0.310606 -0.0937,-0.59375 l 0,-6.40625 c -0.0618,-0.01106 -0.12247,-0.002 -0.1875,0 L 144,51.6875 c -0.96566,-0.840513 -1.90995,-1.192225 -2.75,-1.28125 0.1163,-0.108052 0.27736,-0.251094 0.375,-0.34375 1.12726,0.60351 2.0625,0.9375 2.0625,0.9375 l -0.40625,-2.96875 C 142.1631,45.922183 141.23734,44.732982 140.5,44.0625 c 0.45238,-1.030412 0.50076,-2.210539 -0.8125,-3.03125 9.7e-4,0 -3.12192,-2.800065 -6.6875,0.65625 -0.85131,-1.165862 -2.67197,-3.273707 -4.625,-3 z M 123,41.96875 c -0.0244,0.08762 -0.0431,0.188677 -0.0625,0.28125 -0.11175,0.0061 -0.22737,0.01566 -0.34375,0.03125 L 123,41.96875 z m 5.8125,3.1875 -0.4375,0.3125 -0.0625,-0.03125 0.5,-0.28125 z m -12.03125,0.21875 0.25,0.4375 c -0.0812,0.09798 -0.28802,0.322682 -0.4375,0.5 0.095,-0.291309 0.15848,-0.607621 0.1875,-0.9375 z m 20.78125,0.03125 0.375,0.25 -0.21875,0.5625 c 0.0336,0.105755 0.082,0.209928 0.125,0.3125 l -0.625,-0.4375 c 0.20997,-0.376904 0.33389,-0.665306 0.34375,-0.6875 z m -4.75,3.6875 0.1875,0 c -0.022,0.01557 -0.0747,0.04908 -0.0937,0.0625 -0.0256,-0.01866 -0.0701,-0.04528 -0.0937,-0.0625 z M 113.5,49.5625 c -0.16122,0.128608 -0.28618,0.220224 -0.40625,0.28125 -0.0505,-0.01442 -0.0796,-0.02153 -0.125,-0.03125 0.17117,-0.07573 0.33257,-0.146533 0.53125,-0.25 z m 10.125,6.78125 c -0.14637,0.156335 -0.29186,0.320321 -0.3125,0.34375 -0.0319,0.0039 -0.0702,-0.01518 -0.0937,0 l -0.59375,0.53125 c 0.25726,-0.380753 0.39091,-0.640193 0.5,-0.8125 0.0512,-0.0014 0.10858,0.0065 0.15625,0 0,0 0.20518,-0.03205 0.34375,-0.0625 z m 7.75,0.28125 c 0.14051,0.02159 0.28925,0.02853 0.40625,0.03125 0.0107,0.09608 0.016,0.183005 0.0312,0.28125 l -0.15625,-0.125 c 0,-2.3e-4 -0.29633,0.174584 -0.53125,0.3125 l 0.28125,-0.40625 c -0.006,-0.03449 -0.0247,-0.05998 -0.0312,-0.09375 z m 9.4375,0.125 c 0.11089,0.03057 0.23233,0.04639 0.34375,0.0625 -0.16931,0.06251 -0.17423,0.08057 -0.4375,0.1875 0.023,-0.04899 0.0937,-0.21875 0.0937,-0.21875 0.002,-0.01095 -0.002,-0.0203 0,-0.03125 z m -27.125,0.25 0.125,0.0625 c 0.0741,0.0033 0.14706,2.69e-4 0.21875,0 -0.13945,0.224358 -0.10997,0.48287 0.0937,0.78125 -0.26649,-0.01317 -0.51854,0.009 -0.75,0.03125 0.21332,-0.498266 0.29663,-0.819835 0.3125,-0.875 z m 13.96875,3.8125 0.15625,0.125 c 0.002,0.02025 -0.003,0.0423 0,0.0625 -0.0993,0.02327 -0.13436,0.034 -0.3125,0.09375 0.0487,-0.09112 0.11503,-0.188348 0.15625,-0.28125 z m 3.875,3.3125 c 0.16199,0.0062 0.32033,0.0071 0.5,0 -0.15369,0.237109 -0.23102,0.314423 -0.3125,0.46875 -0.0501,-0.132053 -0.11792,-0.309889 -0.1875,-0.46875 z m -18.78125,0.34375 1.5,0.875 -0.0937,0.09375 -1.40625,-0.96875 z m 1.3125,1.3125 0.0625,0.0625 L 114,66 c 0.0525,-0.11819 0.0336,-0.139329 0.0625,-0.21875 z m 28.09375,0.125 c 0.19718,0.353476 0.44356,0.763969 0.75,1.1875 l -1.0625,-1 c 0.10556,-0.04923 0.20519,-0.117541 0.3125,-0.1875 z m -30.96875,2.71875 -0.59375,0.59375 c -0.42499,-0.192764 -0.56567,-0.244755 -0.8125,-0.34375 0.52055,-0.02896 0.99587,-0.108685 1.40625,-0.25 z m 25.0625,0.21875 c 0.006,0.03312 0.0246,0.06121 0.0312,0.09375 -0.0375,-0.02283 -0.0631,-0.04448 -0.0937,-0.0625 0.0206,-0.0095 0.042,-0.02167 0.0625,-0.03125 z m -1.125,0.25 0.125,0.15625 -0.1875,0.15625 c 0.0267,-0.09986 0.0445,-0.208181 0.0625,-0.3125 z m 10.0625,0.09375 c 0.076,0.03996 0.14062,0.08983 0.21875,0.125 -0.0139,0.0077 -0.0459,0.02197 -0.0625,0.03125 L 145.1875,69.1875 z M 120,69.375 l 0.875,0.9375 -0.90625,-0.90625 c 0.01,-0.008 0.0214,-0.02309 0.0312,-0.03125 z m 2.5,2.6875 0.0937,0.09375 -0.0937,0.09375 0,-0.1875 z m 16.6875,0.34375 c 0.64768,0.179944 1.08627,0.194821 1.1875,0.1875 -0.42434,0.343909 -0.83022,0.692416 -1.09375,1 0.0233,-0.414341 0.008,-0.817194 -0.0937,-1.1875 z m -23.03125,1.375 0.4375,0.5 c -0.1338,-0.06195 -0.27145,-0.102653 -0.40625,-0.15625 -0.0104,-0.114541 -0.003,-0.23085 -0.0312,-0.34375 z m 23.0625,0.4375 c 0.004,0.01029 0.0265,0.02065 0.0312,0.03125 l -0.0625,0.0625 c 0.008,-0.03263 0.0239,-0.06135 0.0312,-0.09375 z m -2.375,2.28125 -1,0.9375 c -0.14437,-0.01953 -0.28776,-0.04365 -0.4375,-0.03125 -0.004,-0.105612 -0.0454,-0.207539 -0.0625,-0.3125 l 0.1875,0.21875 1.3125,-0.8125 z m -16.1875,0.3125 0,0.25 c -0.0617,-0.05694 -0.12522,-0.103481 -0.1875,-0.15625 0.0609,-0.03552 0.12335,-0.05122 0.1875,-0.09375 z m 3.3125,5.34375 c 0.31955,0.142243 0.5,0.1875 0.5,0.1875 0.031,0.01145 0.0888,0.0052 0.125,0 -0.0522,0.273983 -0.11465,0.571422 -0.15625,0.875 -0.11471,-0.268065 -0.28947,-0.679319 -0.46875,-1.0625 z"
       style="fill:#ffa007;fill-opacity:1"
       inkscape:connector-curvature="0" /><path
       d="m 139.71726,43.989667 c 0.11236,0.08427 0.42134,0.140448 0.33707,0.252806 -0.0843,0.112358 -0.43638,-0.352117 -0.33707,-0.252806 0.21274,0.212742 0.70967,0.57666 0.84268,0.842686 0.0251,0.05025 -0.0397,0.128812 0,0.168537 0.0199,0.01986 0.0591,-0.01256 0.0843,0 0.35071,0.175353 -0.0901,-0.0058 0.0843,0.168537 0.0421,0.04213 0.1264,0.04213 0.16854,0.08427 0.0281,0.02809 0.0562,0.224716 0.0843,0.252805 0.0199,0.01986 0.0644,-0.01986 0.0843,0 0.0421,0.04214 0.0421,0.126403 0.0843,0.168537 0.0421,0.04214 0.12641,0.04214 0.16854,0.08427 0.0397,0.03972 -0.0397,0.128812 0,0.168537 0.0421,0.04213 0.1264,0.04213 0.16854,0.08427 0.0787,0.07871 0.0898,0.342629 0.16854,0.421342 0.0421,0.04213 0.1264,0.04213 0.16853,0.08427 0.0397,0.03972 -0.0397,0.128812 0,0.168537 0.0199,0.01986 0.0644,-0.01986 0.0843,0 0.0397,0.03972 -0.0251,0.118289 0,0.168537 0.0862,0.172427 0.16556,0.331125 0.25281,0.505611 0.0251,0.05025 -0.0397,0.128813 0,0.168537 0.0199,0.01986 0.0644,-0.01986 0.0843,0 0.0641,0.06406 0.0401,0.332938 0.0843,0.421343 0.13707,0.274128 0.20001,0.568558 0.33708,0.842686 0.0351,0.07016 -0.0534,0.283621 0,0.337074 0.0199,0.01986 0.0644,-0.01986 0.0843,0 0.0534,0.05345 -0.0351,0.266913 0,0.337074 0.0608,0.121666 0.1077,0.215408 0.16853,0.337074 0.0254,0.05088 -0.0389,0.213852 0,0.252806 0.0199,0.01986 0.0644,-0.01986 0.0843,0 0.0797,0.07966 0.0138,0.435115 0.0843,0.505611 0.0199,0.01986 0.0644,-0.01986 0.0843,0 0.0397,0.03972 -0.0251,0.118289 0,0.168537 0.0491,0.09816 0.11946,0.154644 0.16854,0.252806 0.0337,0.06742 -0.0337,0.185391 0,0.252806 0.0862,0.172427 0.16556,0.331125 0.2528,0.505611 0.0251,0.05025 -0.0251,0.118289 0,0.168537 0.13264,0.265267 0.12083,0.578736 0.25281,0.842686 0.0351,0.07016 -0.0534,0.283621 0,0.337074 0.0199,0.01986 0.0644,-0.01986 0.0843,0 0.0673,0.06726 -0.0442,0.332933 0,0.421343 0.0178,0.03553 0.0665,0.04874 0.0843,0.08427 0.0351,0.07016 -0.0535,0.283622 0,0.337074 0.0199,0.01986 0.0644,-0.01986 0.0843,0 0.0421,0.04213 -0.0421,0.210672 0,0.252806 0.0199,0.01986 0.0644,-0.01986 0.0843,0 0.0421,0.04213 -0.0421,0.210671 0,0.252806 0.0199,0.01986 0.0644,-0.01986 0.0843,0 0.0397,0.03972 -0.0251,0.118289 0,0.168537 0.0655,0.13106 0.25281,0.268232 0.25281,0.421343 m -1.51738,-4.971851 c 0.11236,0.08427 0.42135,0.140448 0.33708,0.252806 -0.0843,0.112358 -0.33708,-0.393254 -0.33708,-0.252806 0,0.179861 0.23731,0.27169 0.33708,0.421343 0.0156,0.02337 -0.0199,0.06441 0,0.08427 0.0199,0.01986 0.0644,-0.01986 0.0843,0 0.009,0.0088 0.0523,0.610201 0.0843,0.674149 0.10877,0.217532 0.14404,0.288079 0.25281,0.505611 0.0251,0.05025 -0.0397,0.128813 0,0.168537 0.0199,0.01986 0.0644,-0.01986 0.0843,0 0.0397,0.03973 -0.0397,0.128813 0,0.168537 0.0199,0.01986 0.0644,-0.01986 0.0843,0 0.0389,0.03896 -0.0254,0.201927 0,0.252806 0.0608,0.121666 0.1077,0.215408 0.16853,0.337074 0.0674,0.13483 -0.0674,0.370782 0,0.505611 0.15145,0.302897 0.15068,0.962677 0,1.264029 -0.0752,0.150443 0.0643,0.272725 -0.0843,0.421343 m -1.26412,-6.910024 c 0.0281,0.112358 0.19662,0.308985 0.0843,0.337074 -0.11236,0.02809 -0.16617,-0.418968 -0.0843,-0.337074 0.24679,0.246795 0.0863,0.67622 0.16853,0.758417 0.0199,0.01986 0.0644,-0.01986 0.0843,0 0.039,0.03896 -0.0254,0.201927 0,0.252806 0.0608,0.121666 0.10771,0.215408 0.16854,0.337074 0.0449,0.08989 -0.0449,0.247188 0,0.337074 0.0725,0.144907 0.0961,0.276436 0.16854,0.421343 0.0442,0.08841 -0.0673,0.354083 0,0.421343 0.0199,0.01986 0.0644,-0.01986 0.0843,0 0.0673,0.06726 -0.0442,0.332933 0,0.421343 0.0178,0.03553 0.0665,0.04874 0.0843,0.08427 0.0621,0.124272 -0.0945,0.495408 0,0.58988 0.0199,0.01986 0.0644,-0.01986 0.0843,0 0.0562,0.05618 -0.0562,0.280895 0,0.337074 0.0199,0.01986 0.0644,-0.01986 0.0843,0 0.0673,0.06726 -0.0442,0.332933 0,0.421343 0.0178,0.03553 0.0665,0.04874 0.0843,0.08427 0.13483,0.26966 -0.13483,0.741564 0,1.011223 0.0178,0.03553 0.0665,0.04874 0.0843,0.08427 0.0621,0.124271 -0.0945,0.495408 0,0.58988 0.0199,0.01986 0.0644,-0.01986 0.0843,0 0.0223,0.02231 0,0.218106 0,0.252805 m -27.4718,-11.460528 c -0.0584,-0.08954 -0.4715,0.268851 -0.84269,1.011223 m 27.72436,6.825752 c 0,0.112359 -0.0273,0.228071 0,0.337075 0.007,0.02725 0.0644,-0.01986 0.0843,0 0.0397,0.03972 -0.0397,0.128812 0,0.168537 0.0199,0.01986 0.0644,-0.01986 0.0843,0 0.0768,0.07682 0,0.637716 0,0.758417 m -2.44385,-1.685371 c 0.11235,-0.08427 0.2528,-0.365164 0.33707,-0.252806 0.0843,0.112358 -0.43639,0.153494 -0.33707,0.252806 0.10696,0.106961 0.27213,-0.143669 0.42134,-0.168537 0.0932,-0.01553 0.24087,0.325143 0.2528,0.337074 0.0421,0.04213 0.21068,-0.04213 0.25281,0 0.0199,0.01986 -0.0199,0.06441 0,0.08427 0.0421,0.04213 0.21067,-0.04213 0.25281,0 0.0199,0.01986 -0.0199,0.06441 0,0.08427 0.0421,0.04213 0.21067,-0.04213 0.2528,0 0.005,0.0046 0.16397,0.248239 0.16854,0.252806 0.0397,0.03972 0.12881,-0.03973 0.16854,0 0.0281,0.02809 0.0562,0.112358 0.0843,0.08427 0.0199,-0.01986 -0.0199,-0.06441 0,-0.08427 0.0729,-0.07285 0.25281,0.122985 0.25281,0.168537 m -2.02249,6.067332 c -0.0281,-0.112358 -0.19662,-0.308984 -0.0843,-0.337074 0.11235,-0.02809 0.0843,0.45289 0.0843,0.337074 0,-0.002 -0.19963,-0.789519 -0.2528,-0.842685 -0.0199,-0.01986 -0.0562,0 -0.0843,0 -0.0281,-0.02809 -0.0562,-0.05618 -0.0843,-0.08427 m -28.06137,8.089782 c 0.95161,0.445652 1.54764,1.379099 2.27525,2.106714 m -1.01122,-9.690883 c -0.0843,0.112358 -0.18999,0.211454 -0.2528,0.337074 -0.0363,0.07252 -0.0268,1.945863 0,2.106714 0.0415,0.248876 0.1729,0.51871 0.2528,0.758417 m -0.2528,-10.196495 c -0.14645,0.138682 -0.43227,0.08973 -0.58988,0.168537 -0.11488,0.05744 -0.52713,0.569568 -0.58988,0.674148 -0.12351,0.205843 -0.17667,0.530008 -0.25281,0.758417 m 5.47746,-5.81453 c -0.37371,-0.252971 -0.41574,-0.08707 -0.75842,0.08427 -0.2167,0.108348 -0.49856,0.135748 -0.67415,0.252805 -0.0294,0.01963 -0.2528,0.128839 -0.2528,0.168538 0,0.02809 0.0644,-0.01986 0.0843,0 0.0794,0.07945 0.0355,0.230482 0,0.337074 -0.0138,0.0414 -0.16593,0.171137 -0.0843,0.252805 0.2373,0.237304 0.84954,-0.491884 1.09549,0 0.0965,0.193023 0.1529,-0.05299 0,0.252806 m 5.39318,-4.887577 c 0.43434,0.250814 0.79513,0.608234 1.26403,0.842686 m 4.46624,1.516834 c -0.2287,0.126132 -0.2012,0.408707 -0.33708,0.589879 -0.0543,0.07241 -0.66169,0.518069 -0.50561,0.674149 0.0719,0.07189 0.93911,-0.07211 1.01122,0 0.11236,0.112358 -0.0281,0.477522 0.0843,0.58988 0.12946,0.129455 0.35817,0.01055 0.50561,0.08427 0.33159,0.165795 0.13396,0.678511 0.0843,0.926954 -0.0331,0.165265 0,0.337074 0,0.505612 m 7.83692,-2.528059 c 0.46531,0.165266 -0.11328,0.982212 0,1.095491 0.0862,0.08622 0.73486,-0.421343 0.75841,-0.421343 0.0281,0 0.0199,0.06441 0,0.08427 -0.0199,0.01986 -0.0644,-0.01986 -0.0843,0 -0.0199,0.01986 0.0126,0.05915 0,0.08427 -0.0519,0.103759 -0.48091,0.530319 -0.33708,0.674148 0.10707,0.10707 0.53415,-0.07 0.67415,0 0.13459,0.0673 0.0843,1.646552 0.0843,1.938177 m 2.86514,8.258316 c 0.32924,0.196411 0.2669,0.603979 0.50561,0.842685 m -9.43808,5.898799 c -0.0843,-0.112358 -0.36516,-0.252806 -0.2528,-0.337074 0.11235,-0.08427 0.29722,0.203834 0.2528,0.337074 -0.0366,0.109873 -0.22471,-0.112358 -0.33707,-0.08427 -0.0545,0.01363 0,0.112358 0,0.168537 0,0.08427 0,0.168538 0,0.252806 0,0.348815 -0.16854,0.653206 -0.16854,1.011223 m -3.87635,-4.803307 c -0.0714,0.560544 0.0624,1.070624 0.16853,1.601103 0.0462,0.230964 0.16854,0.356019 0.16854,0.58988 m 3.87636,-6.067336 c -0.11236,-0.02809 -0.22351,-0.106982 -0.33708,-0.08427 -0.0449,0.009 -0.64735,1.038018 -0.58988,1.095492 0.022,0.02199 0.60761,-0.146356 0.67415,-0.168538 0.0665,-0.02216 0.45566,-0.405715 0.16854,0.168538 -0.12701,0.25401 -0.83541,1.095491 -0.25281,1.095491 m -8.25832,-2.780862 c -0.11236,0.112359 -0.23781,0.212996 -0.33707,0.337075 -0.11102,0.138771 -0.16846,0.505451 -0.25281,0.674148 -0.12302,0.246056 -0.23416,0.416883 -0.33707,0.674149 -0.0376,0.09403 -0.0969,0.32442 -0.16854,0.252805 -0.009,-0.0092 0.60304,-0.579339 0.67415,-0.674148 0.01,-0.01314 0.50561,-0.645883 0.50561,-0.505612 0,0.175353 -0.11817,0.03391 -0.16854,0.08427 -0.0888,0.08883 -0.11235,0.224716 -0.16853,0.337074 -0.0967,0.193341 -0.24041,0.31227 -0.33708,0.505612 -0.48024,0.960489 0.97319,-0.58988 1.09549,-0.58988 0.24083,0 -0.67414,1.588783 -0.67414,1.432565 0,-0.05618 0.12881,0.03973 0.16853,0 0.0199,-0.01986 -0.0199,-0.06441 0,-0.08427 0.0552,-0.05517 0.41748,-0.256669 0.42135,-0.252805 0.0444,0.04441 0.0399,0.124123 0.0843,0.168537 m -9.94372,-1.011223 c -0.2801,0.119977 -0.31966,0.133698 -0.42135,0.337075 -0.0596,0.119172 -0.0382,0.367508 -0.0843,0.505611 -0.0524,0.157211 -0.10496,0.20992 -0.16853,0.337074 -0.0251,0.05025 0.0562,0.168537 0,0.168537 -0.0363,0 0.19662,-0.271526 0.42134,-0.421343 0.077,-0.05132 0.2045,-0.07193 0.25281,-0.168537 0.0123,-0.02467 0.0571,-0.279942 0.16853,-0.168537 0.11759,0.117589 -0.37482,0.749641 -0.42134,0.842686 -0.17901,0.358013 0.26255,-0.168537 0.33707,-0.168537 0.0562,0 0,0.112358 0,0.168537 0,0.168537 0,0.337074 0,0.505611 m 1.34833,20.39299 c 0.0562,0.112358 0.2809,0.280895 0.16854,0.337074 -0.11236,0.05618 -0.25737,-0.425901 -0.16854,-0.337074 0.11582,0.115816 0.15049,0.293445 0.25281,0.421342 0.0557,0.06968 0.16853,0.03198 0.16853,0.168537 m 15.33688,3.117937 c 0.11236,-0.08427 0.25281,-0.365164 0.33707,-0.252806 0.0843,0.112358 -0.43638,0.352117 -0.33707,0.252806 0.12718,-0.127181 0.27169,-0.237306 0.42134,-0.337074 0.0234,-0.01558 0.0644,0.01986 0.0843,0 0.0421,-0.04214 0.0421,-0.126403 0.0843,-0.168537 0.0281,-0.02809 0.22472,-0.05618 0.25281,-0.08427 0.0199,-0.01986 -0.0199,-0.06441 0,-0.08427 0.0397,-0.03972 0.12881,0.03973 0.16853,0 0.0199,-0.01986 -0.0199,-0.06441 0,-0.08427 0.0397,-0.03973 0.12881,0.03972 0.16854,0 0.0199,-0.01986 -0.0199,-0.06441 0,-0.08427 0.0202,-0.02025 0.40088,-0.06381 0.50561,-0.168537 m 4.21337,-5.730256 c -0.1677,0.02832 -0.41422,0.07002 -0.50561,0.252805 -0.0126,0.02512 0.0199,0.06441 0,0.08427 -0.0199,0.01986 -0.0591,-0.01256 -0.0843,0 -0.35071,0.175353 0.0901,-0.0058 -0.0843,0.168537 -0.0199,0.01986 -0.0644,-0.01986 -0.0843,0 -0.0199,0.01986 0.0199,0.06441 0,0.08427 -0.0501,0.05008 -0.0991,0.04955 -0.16854,0.08427 -0.3507,0.175353 0.0901,-0.0058 -0.0843,0.168537 -0.0199,0.01986 -0.0592,-0.01256 -0.0843,0 -0.0711,0.03553 -0.0975,0.133007 -0.16854,0.168537 -0.1351,0.06755 -0.32895,-0.100509 -0.42134,0.08427 -0.0858,0.171506 -0.0271,0.448453 -0.16854,0.58988 m 5.22481,-5.140387 c 0.88545,-0.661827 0.55578,-0.69472 0,0 z m -0.33707,-0.758417 c -0.10955,-0.01655 -0.49069,-0.198383 -0.58988,0 -0.15678,0.313556 0.18672,0.626261 0.33707,0.926954 0.0991,0.198121 -0.18579,0.287322 -0.25281,0.421343 -0.0252,0.05036 0.0555,0.168537 -0.0843,0.168537 -0.006,0 -0.50562,-0.384042 -0.50562,-0.337074 0,0.162019 0.60351,0.168537 0.75842,0.168537 m 2.10676,-8.089781 c 0.0242,0.278424 0.018,0.767403 0.33707,0.926954 0.14857,0.07428 0.23567,-0.01714 0.33707,0.08427 0.0659,0.06587 -0.0733,0.146597 -0.0843,0.168537 -0.0577,0.115425 0.0454,0.175114 0.0843,0.252805 0.0254,0.05088 -0.0389,0.213852 0,0.252806 0.0199,0.01986 0.0644,-0.01986 0.0843,0 0.0199,0.01986 -0.0199,0.06441 0,0.08427 0.0955,0.09546 0.49442,0.157342 0.58988,0.252805 0.0199,0.01986 -0.0126,0.05915 0,0.08427 0.17536,0.350705 -0.006,-0.09009 0.16854,0.08427 0.0397,0.03973 -0.0251,0.118289 0,0.168537 0.0812,0.162468 0.16913,0.336481 0,0.505612 m -7.49993,2.190977 c 0.24051,-0.432105 -0.69855,-1.0467 -0.50561,-1.432565 0.0454,-0.09075 0.11808,-0.370888 0.16853,-0.421343 0.33708,-0.337074 0.0281,0.196627 0.25281,-0.252806 m -11.71333,13.651506 c 0.0673,0.118962 0.32162,0.624286 0.42134,0.674148 0.0511,0.02554 0.2175,0.04896 0.25281,0.08427 0.0199,0.01986 -0.0126,0.05914 0,0.08427 0.17535,0.350706 -0.006,-0.09009 0.16854,0.08427 0.0486,0.04861 0.11815,0.252805 0.2528,0.252805 0.0589,0 0.43598,0.252806 0.50561,0.252806 0.0281,0 0,-0.05618 0,-0.08427 m -5.47745,-7.247098 c -0.10962,0.298138 0.43536,0.463403 0.50561,0.674148 0.0404,0.121211 -0.0857,0.504139 0,0.58988 0.0445,0.04449 0.70795,0.02523 0.75842,0 0.0355,-0.01776 0.0445,-0.08427 0.0843,-0.08427 0.0628,0 0.11236,0.05618 0.16854,0.08427 0.15528,0.07764 0.40127,0.82261 0.58988,1.011223 m -2.52809,-9.101004 c 0.21021,-0.135779 0.32084,-0.244693 0.50561,-0.337074 0.1085,-0.05425 0.0863,0.05686 0.16853,0.08427 0.0799,0.02665 0.17744,-0.03769 0.25281,0 0.13698,0.06849 0.19741,0.361248 0.16854,0.505611 -0.0217,0.108477 -0.2995,0.795992 -0.25281,0.842686 0.089,0.08899 0.45722,-0.07259 0.67415,0.252805 0.36508,0.547625 0.30621,1.255702 0.50561,1.853908 m -10.19649,-3.53928 c -0.0281,-0.112358 -0.0413,-0.229542 -0.0843,-0.337074 -0.0233,-0.05832 -0.14708,-0.168537 -0.0843,-0.168537 0.0281,0 -0.009,0.05762 0,0.08427 0.0478,0.143505 0.23618,0.286046 0.16854,0.421343 -0.0518,0.103589 -0.23349,-0.03247 -0.33708,-0.08427 -0.035,-0.01749 0.0294,-0.223392 0,-0.252806 -0.0397,-0.03972 -0.16854,0.05618 -0.16854,0 0,-0.03972 0.0717,-0.04658 0.0843,-0.08427 0.0178,-0.0533 0,-0.112358 0,-0.168537 m 5.47749,5.561726 c -0.11236,-0.08427 -0.42134,-0.140448 -0.33708,-0.252806 0.0843,-0.112358 0.25917,0.135946 0.33708,0.252806 0.16277,0.244154 0.24425,0.994121 0.42134,1.348297 m -5.98307,-5.983068 c -0.056,0.31383 -0.73535,-0.505611 -0.50561,-0.505611 0.0151,0 -0.01,0.178391 -0.0843,0.252806 -0.0851,0.08509 -0.21562,-0.08427 -0.16853,-0.08427 0.0281,0 -0.0199,0.06441 0,0.08427 0.0223,0.02231 0.2181,0 0.2528,0"
       style="fill:#ffa007;fill-opacity:1;stroke:#ffa007;stroke-width:1;stroke-linecap:butt;stroke-linejoin:round;stroke-miterlimit:4;stroke-opacity:1;stroke-dasharray:none;stroke-dashoffset:0"
       id="path4119"
       inkscape:connector-curvature="0" /></g><path
     d="m 44.183751,40.654026 c 0,0 2.502,2.5008 4.8672,2.5008 0,0 3.7524,-11.2584 7.3656,-10.2852 0,0 4.8672,3.9696 4.5876,5.112 0,0 1.2504,-6.642 -1.1124,-7.4748 0,0 -9.5904,-2.6424 -15.708,10.1472 z"
     id="path4"
     style="fill:#1b5e20;fill-opacity:1"
     inkscape:connector-curvature="0"
     inkscape:export-filename="/home/nwhitehead/projects/pineapple/images/path102.png"
     inkscape:export-xdpi="280.10098"
     inkscape:export-ydpi="280.10098" /><path
     d="m 45.225906,42.594933 c 0,0 0.4657,-8.810143 6.460085,-8.454209 0,0 0,-7.754508 -14.293385,-3.525882 0,0 -5.990405,5.28426 7.8333,11.980091 z"
     id="path6"
     style="fill:#1b5e20;fill-opacity:1"
     inkscape:connector-curvature="0"
     inkscape:export-filename="/home/nwhitehead/projects/pineapple/images/path102.png"
     inkscape:export-xdpi="280.10098"
     inkscape:export-ydpi="280.10098" /><path
     d="m 43.076939,41.667762 c 0,0 0.8064,-10.182 -14.2068,-11.346 0,0 -4.0308,2.0856 -1.53,6.4368 0,0 2.364,-4.4268 5.0052,-3.7908 0,0 5.9772,1.1928 3.8916,9.5316 0.0012,0 4.5036,0.8352 6.84,-0.8316 z"
     id="path8"
     style="fill:#1b5e20;fill-opacity:1"
     inkscape:connector-curvature="0"
     inkscape:export-filename="/home/nwhitehead/projects/pineapple/images/path102.png"
     inkscape:export-xdpi="280.10098"
     inkscape:export-ydpi="280.10098" /><path
     d="m 44.736473,34.0325 c 0,0 4.584,-0.5556 9.4524,-3.0576 0,0 4.8672,-2.5032 7.9248,1.5288 0,0 0.276,-7.7856 -9.3144,-4.4496 0,0 4.0308,-8.196 10.842,-0.8316 l 4.1712,5.6976 c 0,0 1.2516,-10.2864 -7.9248,-12.0936 0,0 -16.6812,0.5556 -15.1512,13.206 z"
     id="path10"
     style="fill:#1b5e20;fill-opacity:1"
     inkscape:connector-curvature="0"
     inkscape:export-xdpi="280.10098"
     inkscape:export-ydpi="280.10098" /><path
     d="m 44.4098,31.967632 c 0,0 13.0656,-22.9356003 33.7776,-5.838 0,0 -5.562,-20.7132003 -30.4416,-4.3092 0,0 9.174,-13.0656003 12.0924,-12.9264003 0,0 3.1644,0.834 3.2496,2.9196003 0,0 1.1964,-4.8660003 -3.8052,-7.0896003 0,0 -6.8112,-4.17000004 -10.1496,4.5876 0,0 -0.666,8.0616003 -5.544,12.5088003 0,0 -5.5752,-10.7028 -6.1308,-14.8740003 0,0 -3.0276,-10.704 -12.7752,4.1712003 0,0 3.0432,-3.4752003 5.6856,-1.3908003 0,0 7.7832,8.7576003 8.8968,11.5380003 0,0 -20.9904,-15.4296003 -29.4708,5.2824 0.0012,0 14.3196,-18.6264003 34.6152,5.4204 z"
     id="path12"
     style="fill:#388e3c;fill-opacity:1"
     inkscape:connector-curvature="0"
     inkscape:export-filename="/home/nwhitehead/projects/pineapple/images/path102.png"
     inkscape:export-xdpi="280.10098"
     inkscape:export-ydpi="280.10098" /><path
     d="m 43.080247,33.992776 c 0,0 0.276,-10.9812 -10.5648,-12.51 0,0 -12.6504,-2.676 -11.8152,10.6164 0,0 6.414,-13.3572 14.6904,-4.4724 0,0 -9.408,-2.1132 -10.1028,5.3928 0,0 2.2236,-6.9492 13.7604,0.9744 h 4.032 z"
     id="path14"
     style="fill:#1b5e20;fill-opacity:1"
     inkscape:connector-curvature="0"
     inkscape:export-filename="/home/nwhitehead/projects/pineapple/images/path102.png"
     inkscape:export-xdpi="280.10098"
     inkscape:export-ydpi="280.10098" /><path
     d="m 40.082964,85.149377 h 7.145071 c 0,0 -0.381436,-3.803403 -3.571622,-6.553754 0,0 -2.900004,0.421587 -3.573449,6.553754 z"
     id="path16"
     style="fill:#ffa007;fill-opacity:1"
     inkscape:connector-curvature="0"
     inkscape:export-filename="/home/nwhitehead/projects/pineapple/images/path102.png"
     inkscape:export-xdpi="280.10098"
     inkscape:export-ydpi="280.10098" /><path
     d="m 40.433079,85.30674 c 0,0 -5.719691,-14.820579 -9.352201,-3.500661 z"
     id="path18"
     style="fill:#ffa007;fill-opacity:1"
     inkscape:connector-curvature="0"
     sodipodi:nodetypes="ccc"
     inkscape:export-filename="/home/nwhitehead/projects/pineapple/images/path102.png"
     inkscape:export-xdpi="280.10098"
     inkscape:export-ydpi="280.10098" /><path
     d="m 27.341147,77.84912 -2.457704,-7.782379 c 0,0 7.295455,2.671783 7.051993,5.834685 0,0 -1.160641,3.406364 -4.594289,1.947694 z"
     id="path20"
     style="fill:#ffa007;fill-opacity:1"
     inkscape:connector-curvature="0"
     inkscape:export-filename="/home/nwhitehead/projects/pineapple/images/path102.png"
     inkscape:export-xdpi="280.10098"
     inkscape:export-ydpi="280.10098" /><path
     d="m 35.307242,81.328212 c 0,0 -6.067101,1.509237 -6.985974,-3.454899 v -3.034344 c 0,0 7.904847,0.01904 6.985974,6.489243 z"
     id="path22"
     style="fill:#ffc107;fill-opacity:1"
     inkscape:connector-curvature="0"
     inkscape:export-filename="/home/nwhitehead/projects/pineapple/images/path102.png"
     inkscape:export-xdpi="280.10098"
     inkscape:export-ydpi="280.10098" /><path
     d="m 40.19987,83.797238 c 0,0 -1.9182,-0.36294 -3.83778,-3.35892 v -2.59992 c 0,0 1.43796,-3.3948 1.91958,-3.3948 0,0 3.27888,0.6003 4.27524,2.63856 v 3.6708 c -0.0014,0.0014 -1.73742,3.27336 -2.35704,3.04428 z"
     id="path24"
     style="fill:#ffc107;fill-opacity:1"
     inkscape:connector-curvature="0"
     inkscape:export-filename="/home/nwhitehead/projects/pineapple/images/path102.png"
     inkscape:export-xdpi="280.10098"
     inkscape:export-ydpi="280.10098" /><path
     d="m 34.9056,78.745521 c 0,0 1.52904,0.2415 3.32718,-2.51712 v -2.87592 l -3.32718,-3.23748 -4.07238,3.91368 4.07238,4.71684 z"
     id="path26"
     style="fill:#ffa007;fill-opacity:1"
     inkscape:connector-curvature="0"
     inkscape:export-filename="/home/nwhitehead/projects/pineapple/images/path102.png"
     inkscape:export-xdpi="280.10098"
     inkscape:export-ydpi="280.10098" /><path
     d="m 26.173715,70.79002 4.79688,-4.55814 c 0,0 4.76376,3.04014 3.11742,6.23622 0,0 -0.69138,0.55752 -2.8773,1.55802 -0.0014,0 -2.51988,-0.12006 -5.037,-3.2361 z"
     id="path28"
     style="fill:#ffc107;fill-opacity:1"
     inkscape:connector-curvature="0"
     inkscape:export-filename="/home/nwhitehead/projects/pineapple/images/path102.png"
     inkscape:export-xdpi="280.10098"
     inkscape:export-ydpi="280.10098" /><path
     d="m 24.98303,70.333867 v -6.83652 l 4.91694,3.41826 c -0.0014,-0.0014 -0.96048,3.53556 -4.91694,3.41826 z"
     id="path30"
     style="fill:#ffa007;fill-opacity:1"
     inkscape:connector-curvature="0"
     inkscape:export-filename="/home/nwhitehead/projects/pineapple/images/path102.png"
     inkscape:export-xdpi="280.10098"
     inkscape:export-ydpi="280.10098" /><path
     d="m 25.21876,63.630869 c 0,0 -1.323161,-6.183269 1.160732,-8.723739 l 3.067909,3.489496 c 0,0 -1.058529,3.808879 -4.228641,5.234243 z"
     id="path32"
     style="fill:#ffa007;fill-opacity:1"
     inkscape:connector-curvature="0"
     inkscape:export-filename="/home/nwhitehead/projects/pineapple/images/path102.png"
     inkscape:export-xdpi="280.10098"
     inkscape:export-ydpi="280.10098" /><path
     d="m 25.372146,64.136014 c 0,0 -1.04328,-1.55388 1.61598,-4.07376 0,0 3.22092,-2.75724 8.45526,2.03826 l -5.4303,4.67544 -4.64094,-2.63994 z"
     id="path34"
     style="fill:#ffc107;fill-opacity:1"
     inkscape:connector-curvature="0"
     inkscape:export-filename="/home/nwhitehead/projects/pineapple/images/path102.png"
     inkscape:export-xdpi="280.10098"
     inkscape:export-ydpi="280.10098" /><polygon
     points="40.082,74.432 43.21,71.304 46.425,74.432 43.254,77.561 "
     id="polygon40"
     style="fill:#ffa007;fill-opacity:1"
     transform="matrix(1.82505,0,0,1.82505,-35.686301,-61.410534)"
     inkscape:export-filename="/home/nwhitehead/projects/pineapple/images/path102.png"
     inkscape:export-xdpi="280.10098"
     inkscape:export-ydpi="280.10098" /><path
     d="m 29.639444,67.124836 5.273601,4.340445 c 0,0 5.067291,-3.723102 4.654671,-6.203583 0,0 -1.52352,-3.942108 -4.953027,-3.583446 l -4.975245,5.446584 z"
     id="path36"
     style="fill:#ffa007;fill-opacity:1"
     inkscape:connector-curvature="0"
     inkscape:export-filename="/home/nwhitehead/projects/pineapple/images/path102.png"
     inkscape:export-xdpi="280.10098"
     inkscape:export-ydpi="280.10098" /><path
     d="m 35.05423,70.131721 3.67632,3.89436 c 0,0 3.86124,0.12558 4.02822,-4.91418 0,0 -1.63116,-2.67582 -3.85296,-2.88006 l -3.85158,3.89988 z"
     id="path38"
     style="fill:#ffc107;fill-opacity:1"
     inkscape:connector-curvature="0"
     inkscape:export-filename="/home/nwhitehead/projects/pineapple/images/path102.png"
     inkscape:export-xdpi="280.10098"
     inkscape:export-ydpi="280.10098" /><path
     d="m 47.156184,83.87527 c 0,0 -2.15556,-0.8556 -3.59628,-3.36996 0,0 -0.35742,-4.91418 3.59628,-6.47358 0,0 3.95922,2.4081 3.95922,4.92384 l -3.95922,4.9197 z"
     id="path42"
     style="fill:#ffc107;fill-opacity:1"
     inkscape:connector-curvature="0"
     inkscape:export-filename="/home/nwhitehead/projects/pineapple/images/path102.png"
     inkscape:export-xdpi="280.10098"
     inkscape:export-ydpi="280.10098" /><path
     d="m 47.369805,84.144931 c 0,0 6.157718,-1.903528 6.96439,-3.171937 0.0018,0 -4.111837,-6.499003 -6.96439,3.171937 z"
     id="path44"
     style="fill:#ffa007;fill-opacity:1"
     inkscape:connector-curvature="0"
     inkscape:export-filename="/home/nwhitehead/projects/pineapple/images/path102.png"
     inkscape:export-xdpi="280.10098"
     inkscape:export-ydpi="280.10098" /><path
     d="m 50.453492,79.880683 6.342049,-5.878486 c 0,0 2.697424,2.078732 0,6.194219 0,0 -2.534995,3.493146 -6.342049,-0.315733 z"
     id="path46"
     style="fill:#ffc107;fill-opacity:1"
     inkscape:connector-curvature="0"
     inkscape:export-filename="/home/nwhitehead/projects/pineapple/images/path102.png"
     inkscape:export-xdpi="280.10098"
     inkscape:export-ydpi="280.10098" /><path
     d="m 58.196966,77.679597 3.199312,-7.081194 c 0,0 -5.400322,2.962056 -6.597556,4.708629 0,0 0.543864,2.368915 3.398244,2.372565 z"
     id="path48"
     style="fill:#ffa007;fill-opacity:1"
     inkscape:connector-curvature="0"
     inkscape:export-filename="/home/nwhitehead/projects/pineapple/images/path102.png"
     inkscape:export-xdpi="280.10098"
     inkscape:export-ydpi="280.10098" /><path
     d="m 61.316228,70.846999 v -7.861998 c 0,0 -3.899259,2.048817 -3.948456,3.369201 0,0 1.464801,3.532662 3.948456,4.492797 z"
     id="path50"
     style="fill:#ffa007;fill-opacity:1"
     inkscape:connector-curvature="0"
     inkscape:export-filename="/home/nwhitehead/projects/pineapple/images/path102.png"
     inkscape:export-xdpi="280.10098"
     inkscape:export-ydpi="280.10098" /><path
     d="m 51.92843,70.130401 4.26144,-3.8985 4.9887,4.67682 c 0,0 -2.5254,2.87592 -4.9887,3.11742 0,-0.0014 -3.54384,0.36018 -4.26144,-3.89574 z"
     id="path52"
     style="fill:#ffc107;fill-opacity:1"
     inkscape:connector-curvature="0"
     inkscape:export-filename="/home/nwhitehead/projects/pineapple/images/path102.png"
     inkscape:export-xdpi="280.10098"
     inkscape:export-ydpi="280.10098" /><path
     d="m 47.469272,74.02904 4.07652,-3.91368 c 0,0 5.03148,2.62614 2.99874,6.5895 l -3.29544,2.04378 -3.77982,-4.7196 z"
     id="path54"
     style="fill:#ffa007;fill-opacity:1"
     inkscape:connector-curvature="0"
     inkscape:export-filename="/home/nwhitehead/projects/pineapple/images/path102.png"
     inkscape:export-xdpi="280.10098"
     inkscape:export-ydpi="280.10098" /><path
     d="m 45.542623,72.994234 c 0,0 1.55664,2.19696 3.95646,0 0,0 2.39706,-2.19558 0.95634,-4.59402 l -2.22456,-2.15832 -4.12758,2.88006 c 0,0 -0.47886,2.89938 1.43934,3.87228 z"
     id="path56"
     style="fill:#ffc107;fill-opacity:1"
     inkscape:connector-curvature="0"
     inkscape:export-filename="/home/nwhitehead/projects/pineapple/images/path102.png"
     inkscape:export-xdpi="280.10098"
     inkscape:export-ydpi="280.10098" /><path
     d="m 51.00257,70.738714 -3.77982,-4.2642 c 0,0 1.89888,-4.36908 5.86638,-3.52866 l 3.48312,3.52866 c 0,0.0014 -1.43382,2.70756 -5.56968,4.2642 z"
     id="path58"
     style="fill:#ffa007;fill-opacity:1"
     inkscape:connector-curvature="0"
     inkscape:export-filename="/home/nwhitehead/projects/pineapple/images/path102.png"
     inkscape:export-xdpi="280.10098"
     inkscape:export-ydpi="280.10098" /><path
     d="m 51.240125,63.103991 3.305721,3.623121 c 0,0 2.307498,2.620137 4.464231,-0.550689 l 2.154254,-3.193193 c 0,0 -0.549797,-5.214733 -3.720623,-4.941769 -0.0016,0.0016 -6.746337,2.251953 -6.203583,5.06253 z"
     id="path60"
     style="fill:#ffc107;fill-opacity:1"
     inkscape:connector-curvature="0"
     sodipodi:nodetypes="cccccc"
     inkscape:export-filename="/home/nwhitehead/projects/pineapple/images/path102.png"
     inkscape:export-xdpi="280.10098"
     inkscape:export-ydpi="280.10098" /><path
     d="m 57.62528,58.611256 c 0,0 2.11416,-2.87454 3.43344,-2.63856 v 6.5964 l -3.43344,-3.95784 z"
     id="path62"
     style="fill:#ffa007;fill-opacity:1"
     inkscape:connector-curvature="0"
     inkscape:export-filename="/home/nwhitehead/projects/pineapple/images/path102.png"
     inkscape:export-xdpi="280.10098"
     inkscape:export-ydpi="280.10098" /><path
     d="m 38.87664,66.655754 2.23836,2.46606 c 0,0 2.06172,2.51988 3.99096,0 l 2.5254,-2.46606 c 0,0 -1.05018,-3.92886 -3.82122,-4.26696 -0.0014,0 -3.13398,0.47886 -4.9335,4.26696 z"
     id="path66"
     style="fill:#ffa007;fill-opacity:1"
     inkscape:connector-curvature="0"
     inkscape:export-filename="/home/nwhitehead/projects/pineapple/images/path102.png"
     inkscape:export-xdpi="280.10098"
     inkscape:export-ydpi="280.10098" /><path
     d="m 38.9212,66.355692 c 0,0 3.90264,-2.02722 4.62162,-4.54986 0,0 -3.9675,-4.08204 -4.62162,-3.66114 l -4.73202,4.0917 c 0,-0.0014 3.82812,2.56128 4.73202,4.1193 z"
     id="path70"
     style="fill:#ffc107;fill-opacity:1"
     inkscape:connector-curvature="0"
     inkscape:export-filename="/home/nwhitehead/projects/pineapple/images/path102.png"
     inkscape:export-xdpi="280.10098"
     inkscape:export-ydpi="280.10098" /><path
     d="m 29.792327,58.402069 c 0,0 2.90904,-3.59628 4.81068,-3.35892 0,0 4.34286,1.19922 4.44084,2.51988 0,0 -2.10726,3.4293 -4.06824,5.15292 0,0.0014 -6.32868,-3.0636 -5.18328,-4.31388 z"
     id="path72"
     style="fill:#ffa007;fill-opacity:1"
     inkscape:connector-curvature="0"
     inkscape:export-filename="/home/nwhitehead/projects/pineapple/images/path102.png"
     inkscape:export-xdpi="280.10098"
     inkscape:export-ydpi="280.10098" /><path
     d="m 29.54017,58.495637 -3.4086,-1.93338 c 0,0 -1.06398,-3.58524 1.7319,-5.14326 0,0 0.63756,-1.5594 5.91468,3.53694 0,0 -0.8418,3.6915 -4.23798,3.5397 z"
     id="path74"
     style="fill:#ffc107;fill-opacity:1"
     inkscape:connector-curvature="0"
     inkscape:export-filename="/home/nwhitehead/projects/pineapple/images/path102.png"
     inkscape:export-xdpi="280.10098"
     inkscape:export-ydpi="280.10098" /><path
     d="m 27.779497,51.606417 c 0,0 4.53882,-1.31652 4.7472,-4.91556 l -0.51336,-1.5594 c 0,0.0014 -5.35026,-0.83766 -4.23384,6.47496 z"
     id="path76"
     style="fill:#ffc107;fill-opacity:1"
     inkscape:connector-curvature="0"
     inkscape:export-filename="/home/nwhitehead/projects/pineapple/images/path102.png"
     inkscape:export-xdpi="280.10098"
     inkscape:export-ydpi="280.10098" /><path
     d="m 33.024392,47.791511 -1.67946,-3.11742 c 0,0 1.51938,-5.3958 6.39492,-2.63856 l 1.518,0.9591 -6.23346,4.79688 z"
     id="path78"
     style="fill:#ffa007;fill-opacity:1"
     inkscape:connector-curvature="0"
     inkscape:export-filename="/home/nwhitehead/projects/pineapple/images/path102.png"
     inkscape:export-xdpi="280.10098"
     inkscape:export-ydpi="280.10098" /><path
     d="m 33.1572,46.779478 c 0,0 -3.33408,4.07652 -4.416,4.55538 0,0 2.24526,3.4776 4.416,3.83778 0,0 3.61146,-1.31928 5.4096,-4.1952 0,0 -3.09258,-4.50432 -5.4096,-4.19796 z"
     id="path80"
     style="fill:#ffa007;fill-opacity:1"
     inkscape:connector-curvature="0"
     inkscape:export-filename="/home/nwhitehead/projects/pineapple/images/path102.png"
     inkscape:export-xdpi="280.10098"
     inkscape:export-ydpi="280.10098" /><path
     d="m 33.492,46.693508 4.06824,4.43532 5.45376,-4.43532 c 0,0 -1.8768,-4.43808 -6.19482,-2.51988 0,0 -2.5254,0.84042 -3.32718,2.51988 z"
     id="path82"
     style="fill:#ffc107;fill-opacity:1"
     inkscape:connector-curvature="0"
     inkscape:export-filename="/home/nwhitehead/projects/pineapple/images/path102.png"
     inkscape:export-xdpi="280.10098"
     inkscape:export-ydpi="280.10098" /><path
     d="m 38.62185,43.872312 4.37736,3.59628 6.22794,-3.59628 c 0,0 -2.78208,-4.67682 -5.6718,-3.59628 -0.0014,-0.0014 -4.3332,-0.0014 -4.9335,3.59628 z"
     id="path84"
     style="fill:#ffa007;fill-opacity:1"
     inkscape:connector-curvature="0"
     inkscape:export-filename="/home/nwhitehead/projects/pineapple/images/path102.png"
     inkscape:export-xdpi="280.10098"
     inkscape:export-ydpi="280.10098" /><path
     d="m 59.408944,52.445238 c 0,0 -5.001926,-1.731863 -5.965236,-4.766207 l 1.101379,-3.032757 c 0,0 1.758395,-0.277725 4.464231,4.826067 z"
     id="path64"
     style="fill:#ffc107;fill-opacity:1"
     inkscape:connector-curvature="0"
     sodipodi:nodetypes="ccccc"
     inkscape:export-filename="/home/nwhitehead/projects/pineapple/images/path102.png"
     inkscape:export-xdpi="280.10098"
     inkscape:export-ydpi="280.10098" /><path
     d="m 48.340696,43.491845 6.23898,4.27662 c 0,0 3.71082,-3.47898 0.83352,-5.27712 0.0014,0 -3.35616,-3.03738 -7.0725,1.0005 z"
     id="path86"
     style="fill:#ffa007;fill-opacity:1"
     inkscape:connector-curvature="0"
     inkscape:export-filename="/home/nwhitehead/projects/pineapple/images/path102.png"
     inkscape:export-xdpi="280.10098"
     inkscape:export-ydpi="280.10098" /><path
     d="m 43.20724,47.54956 5.4027,-3.99234 c 0,0 2.277,0.39468 4.67682,3.27198 0,0 -1.32066,2.99736 -3.35892,3.71358 H 47.5846 c 0,0.0014 -4.02822,-1.9182 -4.37736,-2.99322 z"
     id="path88"
     style="fill:#ffc107;fill-opacity:1"
     inkscape:connector-curvature="0"
     inkscape:export-filename="/home/nwhitehead/projects/pineapple/images/path102.png"
     inkscape:export-xdpi="280.10098"
     inkscape:export-ydpi="280.10098" /><path
     d="m 48.11809,50.948 c 0,0 3.93852,-2.75172 4.54848,-3.58662 l 5.23434,3.58662 c 0,0 -3.47898,3.4845 -4.89072,3.72462 0,0 -4.8921,-1.81194 -4.8921,-3.72462 z"
     id="path90"
     style="fill:#ffa007;fill-opacity:1"
     inkscape:connector-curvature="0"
     inkscape:export-filename="/home/nwhitehead/projects/pineapple/images/path102.png"
     inkscape:export-xdpi="280.10098"
     inkscape:export-ydpi="280.10098" /><path
     d="m 52.877451,53.619551 c 0,0 3.1119,-3.71634 6.82824,-0.48162 l 1.33998,3.34512 c 0,0 -3.2568,3.22092 -5.65662,1.0764 0.0014,0 -3.28026,-2.21766 -2.5116,-3.9399 z"
     id="path92"
     style="fill:#ffc107;fill-opacity:1"
     inkscape:connector-curvature="0"
     inkscape:export-filename="/home/nwhitehead/projects/pineapple/images/path102.png"
     inkscape:export-xdpi="280.10098"
     inkscape:export-ydpi="280.10098" /><path
     d="m 37.36187,50.840991 6.00024,-4.55262 5.21502,4.55262 c 0,0 -3.23748,3.83778 -5.21502,3.59766 0,0 -3.90678,-0.9591 -6.00024,-3.59766 z"
     id="path94"
     style="fill:#ffa007;fill-opacity:1"
     inkscape:connector-curvature="0"
     inkscape:export-filename="/home/nwhitehead/projects/pineapple/images/path102.png"
     inkscape:export-xdpi="280.10098"
     inkscape:export-ydpi="280.10098" /><path
     d="m 42.79788,55.169235 4.85208,-5.28816 c 0,0 5.57934,4.01994 5.70216,4.61748 0,0 -2.7669,2.39844 -5.03976,3.47622 -0.0014,-0.0014 -2.0355,1.09986 -5.51448,-2.80554 z"
     id="path96"
     style="fill:#ffc107;fill-opacity:1"
     inkscape:connector-curvature="0"
     inkscape:export-filename="/home/nwhitehead/projects/pineapple/images/path102.png"
     inkscape:export-xdpi="280.10098"
     inkscape:export-ydpi="280.10098" /><path
     d="m 47.780408,59.5852 c 0,0 -0.71898,-2.65926 0,-2.42052 0,0 4.44912,-3.36444 4.8024,-3.36444 0,0 4.30974,2.1597 3.9468,4.43808 0,0 -1.77882,3.95508 -3.9468,4.67544 0.0014,0 -3.48312,-0.89976 -4.8024,-3.32856 z"
     id="path98"
     style="fill:#ffa007;fill-opacity:1"
     inkscape:connector-curvature="0"
     inkscape:export-filename="/home/nwhitehead/projects/pineapple/images/path102.png"
     inkscape:export-xdpi="280.10098"
     inkscape:export-ydpi="280.10098" /><path
     d="m 43.941982,63.25547 1.9734,2.139 c 0,0 2.99874,0.85836 5.03562,-1.06674 l 1.07226,-2.04654 -4.6506,-4.01718 c 0,-0.0014 -5.4027,2.8497 -3.43068,4.99146 z"
     id="path68"
     style="fill:#ffc107;fill-opacity:1"
     inkscape:connector-curvature="0"
     inkscape:export-filename="/home/nwhitehead/projects/pineapple/images/path102.png"
     inkscape:export-xdpi="280.10098"
     inkscape:export-ydpi="280.10098" /><path
     d="m 43.8916,62.727225 -4.9335,-4.55814 c 0,0 3.26784,-3.73704 4.9335,-3.12846 0,0 2.50056,-0.828 3.2223,3.12846 l -3.2223,4.55814 z"
     id="path100"
     style="fill:#ffa007;fill-opacity:1"
     inkscape:connector-curvature="0"
     inkscape:export-filename="/home/nwhitehead/projects/pineapple/images/path102.png"
     inkscape:export-xdpi="280.10098"
     inkscape:export-ydpi="280.10098" /><path
     d="m 38.07498,50.680312 -4.68786,4.38426 c 0,0 3.92748,3.01944 5.60556,2.79174 0,0 3.83778,-0.70794 4.6782,-2.50332 0,0 -0.12144,-2.37636 -1.31928,-2.38464 l -4.27662,-2.28804 z"
     id="path102"
     style="fill:#ffc107;fill-opacity:1"
     inkscape:connector-curvature="0"
     inkscape:export-xdpi="280.10098"
     inkscape:export-ydpi="280.10098" /><text
     x="1.9067796"
     y="139.08368"
     font-size="5px"
     font-weight="bold"
     id="text104"
     style="font-size:5px;font-weight:bold;fill:#000000;font-family:'\'Helvetica Neue\', Helvetica, Arial-Unicode, Arial, Sans-serif'">Created by Marianna Nardella</text>
<text
     x="-0.71504235"
     y="147.42055"
     font-size="5px"
     font-weight="bold"
     id="text106"
     style="font-size:5px;font-weight:bold;fill:#000000;font-family:'\'Helvetica Neue\', Helvetica, Arial-Unicode, Arial, Sans-serif'">from the Noun Project</text>
<rect
     style="fill:#388e3c;fill-opacity:1;stroke:none"
     id="rect3059"
     width="13.752626"
     height="11.078506"
     x="-7.0656686"
     y="-10.502585" /><rect
     y="2.6133475"
     x="-6.9383292"
     height="11.078506"
     width="13.752626"
     id="rect3854"
     style="fill:#1b5e20;fill-opacity:1;stroke:none" /><rect
     style="fill:#ffc107;fill-opacity:1;stroke:none"
     id="rect3856"
     width="13.752626"
     height="11.078506"
     x="-7.9570422"
     y="18.912756" /><rect
     y="32.792721"
     x="-8.721077"
     height="11.078506"
     width="13.752626"
     id="rect3858"
     style="fill:#ffa007;fill-opacity:1;stroke:none" /></svg>