<?xml version="1.0" encoding="UTF-8" standalone="no"?>
<svg
   xmlns:dc="http://purl.org/dc/elements/1.1/"
   xmlns:cc="http://creativecommons.org/ns#"
   xmlns:rdf="http://www.w3.org/1999/02/22-rdf-syntax-ns#"
   xmlns:svg="http://www.w3.org/2000/svg"
   xmlns="http://www.w3.org/2000/svg"
   xmlns:sodipodi="http://sodipodi.sourceforge.net/DTD/sodipodi-0.dtd"
   xmlns:inkscape="http://www.inkscape.org/namespaces/inkscape"
   version="1.1"
   x="0px"
   y="0px"
   viewBox="0 0 90 112.5"
   enable-background="new 0 0 90 90"
   xml:space="preserve"
   id="svg2"
   inkscape:version="0.48.4 r9939"
   width="100%"
   height="100%"
   sodipodi:docname="noun_157527_cc.svg"><metadata
     id="metadata112"><rdf:RDF><cc:Work
         rdf:about=""><dc:format>image/svg+xml</dc:format><dc:type
           rdf:resource="http://purl.org/dc/dcmitype/StillImage" /></cc:Work></rdf:RDF></metadata><defs
     id="defs110" /><sodipodi:namedview
     pagecolor="#ffffff"
     bordercolor="#666666"
     borderopacity="1"
     objecttolerance="10"
     gridtolerance="10"
     guidetolerance="10"
     inkscape:pageopacity="0"
     inkscape:pageshadow="2"
     inkscape:window-width="1480"
     inkscape:window-height="907"
     id="namedview108"
     showgrid="false"
     inkscape:zoom="8.3911111"
     inkscape:cx="45"
     inkscape:cy="65.783898"
     inkscape:window-x="145"
     inkscape:window-y="81"
     inkscape:window-maximized="0"
     inkscape:current-layer="svg2" /><path
     d="m 44.183751,40.654026 c 0,0 2.502,2.5008 4.8672,2.5008 0,0 3.7524,-11.2584 7.3656,-10.2852 0,0 4.8672,3.9696 4.5876,5.112 0,0 1.2504,-6.642 -1.1124,-7.4748 0,0 -9.5904,-2.6424 -15.708,10.1472 z"
     id="path4"
     style="fill:#1b5e20;fill-opacity:1"
     inkscape:connector-curvature="0" /><path
     d="m 45.225906,42.594933 c 0,0 0.4657,-8.810143 6.460085,-8.454209 0,0 0,-7.754508 -14.293385,-3.525882 0,0 -5.990405,5.28426 7.8333,11.980091 z"
     id="path6"
     style="fill:#1b5e20;fill-opacity:1"
     inkscape:connector-curvature="0" /><path
     d="m 43.076939,41.667762 c 0,0 0.8064,-10.182 -14.2068,-11.346 0,0 -4.0308,2.0856 -1.53,6.4368 0,0 2.364,-4.4268 5.0052,-3.7908 0,0 5.9772,1.1928 3.8916,9.5316 0.0012,0 4.5036,0.8352 6.84,-0.8316 z"
     id="path8"
     style="fill:#1b5e20;fill-opacity:1"
     inkscape:connector-curvature="0" /><path
     d="m 44.736473,34.0325 c 0,0 4.584,-0.5556 9.4524,-3.0576 0,0 4.8672,-2.5032 7.9248,1.5288 0,0 0.276,-7.7856 -9.3144,-4.4496 0,0 4.0308,-8.196 10.842,-0.8316 l 4.1712,5.6976 c 0,0 1.2516,-10.2864 -7.9248,-12.0936 0,0 -16.6812,0.5556 -15.1512,13.206 z"
     id="path10"
     style="fill:#1b5e20;fill-opacity:1"
     inkscape:connector-curvature="0" /><path
     d="m 44.4098,31.967632 c 0,0 13.0656,-22.9356003 33.7776,-5.838 0,0 -5.562,-20.7132003 -30.4416,-4.3092 0,0 9.174,-13.0656003 12.0924,-12.9264003 0,0 3.1644,0.834 3.2496,2.9196003 0,0 1.1964,-4.8660003 -3.8052,-7.0896003 0,0 -6.8112,-4.17000004 -10.1496,4.5876 0,0 -0.666,8.0616003 -5.544,12.5088003 0,0 -5.5752,-10.7028 -6.1308,-14.8740003 0,0 -3.0276,-10.704 -12.7752,4.1712003 0,0 3.0432,-3.4752003 5.6856,-1.3908003 0,0 7.7832,8.7576003 8.8968,11.5380003 0,0 -20.9904,-15.4296003 -29.4708,5.2824 0.0012,0 14.3196,-18.6264003 34.6152,5.4204 z"
     id="path12"
     style="fill:#388e3c;fill-opacity:1"
     inkscape:connector-curvature="0" /><path
     d="m 43.080247,33.992776 c 0,0 0.276,-10.9812 -10.5648,-12.51 0,0 -12.6504,-2.676 -11.8152,10.6164 0,0 6.414,-13.3572 14.6904,-4.4724 0,0 -9.408,-2.1132 -10.1028,5.3928 0,0 2.2236,-6.9492 13.7604,0.9744 h 4.032 z"
     id="path14"
     style="fill:#1b5e20;fill-opacity:1"
     inkscape:connector-curvature="0" /><path
     d="M41.698,83.668h3.915c0,0-0.209-2.084-1.957-3.591C43.656,80.077,42.067,80.308,41.698,83.668z"
     id="path16"
     style="fill:#ffa007;fill-opacity:1" /><path
     d="M38.2,83.668c0,0-2.666-6.486-4.171-1.796L38.2,83.668z"
     id="path18"
     style="fill:#ffa007;fill-opacity:1" /><path
     d="M27.902,75.907l-1.171-3.708c0,0,3.476,1.273,3.36,2.78C30.091,74.979,29.538,76.602,27.902,75.907z"
     id="path20"
     style="fill:#ffa007;fill-opacity:1" /><path
     d="M34.029,80.168c0,0-3.823,0.951-4.402-2.177v-1.912C29.627,76.079,34.608,76.091,34.029,80.168z"
     id="path22"
     style="fill:#ffc107;fill-opacity:1" /><path
     d="M39.996,82.511c0,0-1.39-0.263-2.781-2.434v-1.884c0,0,1.042-2.46,1.391-2.46c0,0,2.376,0.435,3.098,1.912v2.66  C41.703,80.306,40.445,82.677,39.996,82.511z"
     id="path24"
     style="fill:#ffc107;fill-opacity:1" /><path
     d="M34.803,77.558c0,0,1.108,0.175,2.411-1.824v-2.084l-2.411-2.346l-2.951,2.836L34.803,77.558z"
     id="path26"
     style="fill:#ffa007;fill-opacity:1" /><path
     d="M27.311,70.608l3.476-3.303c0,0,3.452,2.203,2.259,4.519c0,0-0.501,0.404-2.085,1.129  C30.96,72.953,29.135,72.866,27.311,70.608z"
     id="path28"
     style="fill:#ffc107;fill-opacity:1" /><path
     d="M25.66,69.393v-4.954l3.563,2.477C29.222,66.915,28.527,69.478,25.66,69.393z"
     id="path30"
     style="fill:#ffa007;fill-opacity:1" /><path
     d="M26.095,61.659c0,0-0.725-3.388,0.636-4.78l1.681,1.912C28.412,58.791,27.832,60.878,26.095,61.659z"
     id="path32"
     style="fill:#ffa007;fill-opacity:1" /><path
     d="M26.731,63.83c0,0-0.756-1.126,1.171-2.952c0,0,2.334-1.998,6.127,1.477l-3.935,3.388L26.731,63.83z"
     id="path34"
     style="fill:#ffc107;fill-opacity:1" /><path
     d="M31.48,66.916l3.323,2.735c0,0,3.193-2.346,2.933-3.909c0,0-0.96-2.484-3.121-2.258L31.48,66.916z"
     id="path36"
     style="fill:#ffa007;fill-opacity:1" /><path
     d="M36.115,70.131l2.664,2.822c0,0,2.798,0.091,2.919-3.561c0,0-1.182-1.939-2.792-2.087L36.115,70.131z"
     id="path38"
     style="fill:#ffc107;fill-opacity:1" /><polygon
     points="40.082,74.432 43.21,71.304 46.425,74.432 43.254,77.561 "
     id="polygon40"
     style="fill:#ffa007;fill-opacity:1" /><path
     d="M47.205,82.52c0,0-1.562-0.62-2.606-2.442c0,0-0.259-3.561,2.606-4.691c0,0,2.869,1.745,2.869,3.568L47.205,82.52z"
     id="path42"
     style="fill:#ffc107;fill-opacity:1" /><path
     d="M48.944,82.945c0,0,3.374-1.043,3.816-1.738C52.761,81.207,50.507,77.646,48.944,82.945z"
     id="path44"
     style="fill:#ffa007;fill-opacity:1" /><path
     d="M52.158,78.954l3.475-3.221c0,0,1.478,1.139,0,3.394C55.633,79.127,54.244,81.041,52.158,78.954z"
     id="path46"
     style="fill:#ffc107;fill-opacity:1" /><path
     d="M58.152,76.079l1.753-3.88c0,0-2.959,1.623-3.615,2.58C56.29,74.779,56.588,76.077,58.152,76.079z"
     id="path48"
     style="fill:#ffa007;fill-opacity:1" /><path
     d="M60.586,69.393v-4.954c0,0-2.457,1.291-2.488,2.123C58.098,66.562,59.021,68.788,60.586,69.393z"
     id="path50"
     style="fill:#ffa007;fill-opacity:1" /><path
     d="M53.202,70.131l3.088-2.825l3.615,3.389c0,0-1.83,2.084-3.615,2.259C56.29,72.953,53.722,73.215,53.202,70.131z"
     id="path52"
     style="fill:#ffc107;fill-opacity:1" /><path
     d="M48.51,74.14l2.954-2.836c0,0,3.646,1.903,2.173,4.775l-2.388,1.481L48.51,74.14z"
     id="path54"
     style="fill:#ffa007;fill-opacity:1" /><path
     d="M46.077,72.199c0,0,1.128,1.592,2.867,0c0,0,1.737-1.591,0.693-3.329l-1.612-1.564l-2.991,2.087  C45.034,69.393,44.687,71.494,46.077,72.199z"
     id="path56"
     style="fill:#ffc107;fill-opacity:1" /><path
     d="M51.249,69.651l-2.739-3.09c0,0,1.376-3.166,4.251-2.557l2.524,2.557C55.285,66.562,54.246,68.523,51.249,69.651z"
     id="path58"
     style="fill:#ffa007;fill-opacity:1" /><path
     d="M53.202,63.024l2.083,2.283c0,0,1.454,1.651,2.813-0.347l1.808-1.937c0,0-0.797-3.361-2.795-3.189  C57.11,59.835,52.86,61.253,53.202,63.024z"
     id="path60"
     style="fill:#ffc107;fill-opacity:1" /><path
     d="M58.098,58.791c0,0,1.532-2.083,2.488-1.912v4.78L58.098,58.791z"
     id="path62"
     style="fill:#ffa007;fill-opacity:1" /><path
     d="M58.5,50.711c0,0-3.302-0.866-3.909-2.778l0.694-1.911c0,0,1.108-0.175,2.813,3.041L58.5,50.711z"
     id="path64"
     style="fill:#ffc107;fill-opacity:1" /><path
     d="M40.082,66.562l1.622,1.787c0,0,1.494,1.826,2.892,0l1.83-1.787c0,0-0.761-2.847-2.769-3.092  C43.656,63.47,41.386,63.817,40.082,66.562z"
     id="path66"
     style="fill:#ffa007;fill-opacity:1" /><path
     d="M44.995,62.889l1.43,1.55c0,0,2.173,0.622,3.649-0.773l0.777-1.483l-3.37-2.911C47.481,59.271,43.566,61.337,44.995,62.889z  "
     id="path68"
     style="fill:#ffc107;fill-opacity:1" /><path
     d="M38.906,65.221c0,0,2.828-1.469,3.349-3.297c0,0-2.875-2.958-3.349-2.653l-3.429,2.965  C35.477,62.235,38.251,64.092,38.906,65.221z"
     id="path70"
     style="fill:#ffc107;fill-opacity:1" /><path
     d="M31.047,58.532c0,0,2.108-2.606,3.486-2.434c0,0,3.147,0.869,3.218,1.826c0,0-1.527,2.485-2.948,3.734  C34.803,61.659,30.217,59.438,31.047,58.532z"
     id="path72"
     style="fill:#ffa007;fill-opacity:1" /><path
     d="M29.627,57.491l-2.47-1.401c0,0-0.771-2.598,1.255-3.727c0,0,0.462-1.13,4.286,2.563  C32.698,54.926,32.088,57.601,29.627,57.491z"
     id="path74"
     style="fill:#ffc107;fill-opacity:1" /><path
     d="M28.412,50.711c0,0,3.289-0.954,3.44-3.562l-0.372-1.13C31.48,46.02,27.603,45.412,28.412,50.711z"
     id="path76"
     style="fill:#ffc107;fill-opacity:1" /><path
     d="M32.698,46.891l-1.217-2.259c0,0,1.101-3.91,4.634-1.912l1.1,0.695L32.698,46.891z"
     id="path78"
     style="fill:#ffa007;fill-opacity:1" /><path
     d="M33.294,47.933c0,0-2.416,2.954-3.2,3.301c0,0,1.627,2.52,3.2,2.781c0,0,2.617-0.956,3.92-3.04  C37.214,50.975,34.973,47.711,33.294,47.933z"
     id="path80"
     style="fill:#ffa007;fill-opacity:1" /><path
     d="M34.803,46.891l2.948,3.214l3.952-3.214c0,0-1.36-3.216-4.489-1.826C37.214,45.065,35.384,45.674,34.803,46.891z"
     id="path82"
     style="fill:#ffc107;fill-opacity:1" /><path
     d="M40.082,43.85l3.172,2.606l4.513-2.606c0,0-2.016-3.389-4.11-2.606C43.656,41.243,40.517,41.243,40.082,43.85z"
     id="path84"
     style="fill:#ffa007;fill-opacity:1" /><path
     d="m 49.465,43.792 4.521,3.099 c 0,0 2.689,-2.521 0.604,-3.824 10e-4,0 -2.432,-2.201 -5.125,0.725 z"
     id="path86"
     style="fill:#ffa007;fill-opacity:1"
     inkscape:connector-curvature="0" /><path
     d="M44.595,47.412l3.915-2.893c0,0,1.65,0.286,3.389,2.371c0,0-0.957,2.172-2.434,2.691h-1.698  C47.767,49.582,44.848,48.191,44.595,47.412z"
     id="path88"
     style="fill:#ffc107;fill-opacity:1" /><path
     d="M49.465,50.967c0,0,2.854-1.994,3.296-2.599l3.793,2.599c0,0-2.521,2.525-3.544,2.699  C53.01,53.666,49.465,52.353,49.465,50.967z"
     id="path90"
     style="fill:#ffa007;fill-opacity:1" /><path
     d="M53.986,54.015c0,0,2.255-2.693,4.948-0.349l0.971,2.424c0,0-2.36,2.334-4.099,0.78  C55.807,56.87,53.429,55.263,53.986,54.015z"
     id="path92"
     style="fill:#ffc107;fill-opacity:1" /><path
     d="M38.906,50.711l4.348-3.299l3.779,3.299c0,0-2.346,2.781-3.779,2.607C43.254,53.318,40.423,52.623,38.906,50.711z"
     id="path94"
     style="fill:#ffa007;fill-opacity:1" /><path
     d="M44.251,54.847l3.516-3.832c0,0,4.043,2.913,4.132,3.346c0,0-2.005,1.738-3.652,2.519  C48.246,56.879,46.772,57.677,44.251,54.847z"
     id="path96"
     style="fill:#ffc107;fill-opacity:1" /><path
     d="M48.944,59.247c0,0-0.521-1.927,0-1.754c0,0,3.224-2.438,3.48-2.438c0,0,3.123,1.565,2.86,3.216c0,0-1.289,2.866-2.86,3.388  C52.425,61.659,49.9,61.007,48.944,59.247z"
     id="path98"
     style="fill:#ffa007;fill-opacity:1" /><path
     d="M43.656,61.659l-3.575-3.303c0,0,2.368-2.708,3.575-2.267c0,0,1.812-0.6,2.335,2.267L43.656,61.659z"
     id="path100"
     style="fill:#ffa007;fill-opacity:1" /><path
     d="M38.2,51.67l-3.397,3.177c0,0,2.846,2.188,4.062,2.023c0,0,2.781-0.513,3.39-1.814c0,0-0.088-1.722-0.956-1.728L38.2,51.67z  "
     id="path102"
     style="fill:#ffc107;fill-opacity:1" /><text
     x="1.9067796"
     y="139.08368"
     font-size="5px"
     font-weight="bold"
     id="text104"
     style="font-size:5px;font-weight:bold;fill:#000000;font-family:'\'Helvetica Neue\', Helvetica, Arial-Unicode, Arial, Sans-serif'">Created by Marianna Nardella</text>
<text
     x="-0.71504235"
     y="147.42055"
     font-size="5px"
     font-weight="bold"
     id="text106"
     style="font-size:5px;font-weight:bold;fill:#000000;font-family:'\'Helvetica Neue\', Helvetica, Arial-Unicode, Arial, Sans-serif'">from the Noun Project</text>
<rect
     style="fill:#388e3c;fill-opacity:1;stroke:none"
     id="rect3059"
     width="13.752626"
     height="11.078506"
     x="-7.0656686"
     y="-10.502585" /><rect
     y="2.6133475"
     x="-6.9383292"
     height="11.078506"
     width="13.752626"
     id="rect3854"
     style="fill:#1b5e20;fill-opacity:1;stroke:none" /><rect
     style="fill:#ffc107;fill-opacity:1;stroke:none"
     id="rect3856"
     width="13.752626"
     height="11.078506"
     x="-7.9570422"
     y="18.912756" /><rect
     y="32.792721"
     x="-8.721077"
     height="11.078506"
     width="13.752626"
     id="rect3858"
     style="fill:#ffa007;fill-opacity:1;stroke:none" /></svg>